<svg version="1.1" xmlns="http://www.w3.org/2000/svg" xmlns:xlink="http://www.w3.org/1999/xlink" width="22" height="21" viewBox="0,0,22,21"><g transform="translate(-229,-170.71261)"><g data-paper-data="{&quot;isPaintingLayer&quot;:true}" fill-rule="nonzero" stroke-width="0" stroke-linecap="butt" stroke-linejoin="miter" stroke-miterlimit="10" stroke-dasharray="" stroke-dashoffset="0" style="mix-blend-mode: normal"><path d="M241.293,184.70688l-1.293,-1.293l-1.293,1.293c-0.391,0.391 -1.023,0.391 -1.414,0c-0.391,-0.391 -0.391,-1.023 0,-1.414l1.707,-1.707v-1.728c-1.72,-0.447 -3,-2 -3,-3.858c0,-0.552 0.448,-1 1,-1c0.552,0 1,0.448 1,1c0,1.103 0.897,2 2,2c1.103,0 2,-0.897 2,-2c0,-0.552 0.448,-1 1,-1c0.552,0 1,0.448 1,1c0,1.858 -1.28,3.411 -3,3.858v1.728l1.707,1.707c0.391,0.391 0.391,1.023 0,1.414c-0.195,0.195 -0.451,0.293 -0.707,0.293c-0.256,0 -0.512,-0.098 -0.707,-0.293z" fill="#1dff00" stroke="none"/><path d="M246,188.71261h-7.667l-3.733,2.8c-0.177,0.133 -0.388,0.2 -0.6,0.2c-0.152,0 -0.306,-0.035 -0.447,-0.105c-0.339,-0.17 -0.553,-0.516 -0.553,-0.895v-2.101c-2.279,-0.464 -4,-2.484 -4,-4.899v-8c0,-2.757 2.243,-5 5,-5h12c2.757,0 5,2.243 5,5v8c0,2.757 -2.243,5 -5,5zM246,186.71261c1.654,0 3,-1.346 3,-3v-8c0,-1.654 -1.346,-3 -3,-3h-12c-1.654,0 -3,1.346 -3,3v8c0,1.654 1.346,3 3,3c0.552,0 1,0.448 1,1v1l2.4,-1.8c0.173,-0.13 0.384,-0.2 0.6,-0.2z" fill="#1dff00" stroke="none"/><path d="" fill="#000000" stroke="#000000"/></g></g></svg>